<svg width="320" height="195" viewBox="0 0 320 195" fill="none" xmlns="http://www.w3.org/2000/svg">
<path d="M78.0269 125.09C78.5767 125.09 79.1265 125.204 79.6763 125.433C80.2262 125.617 80.7531 125.96 81.2571 126.464L90.4665 136.155C86.4345 141.424 81.3716 145.41 75.2778 148.113C69.2298 150.771 62.0592 152.1 53.7662 152.1C46.1603 152.1 39.3334 150.817 33.2854 148.251C27.2833 145.639 22.1745 142.065 17.9593 137.529C13.7898 132.948 10.5825 127.541 8.33743 121.31C6.09234 115.033 4.9698 108.229 4.9698 100.898C4.9698 93.4295 6.18398 86.5796 8.61234 80.3484C11.0407 74.0713 14.4542 68.6647 18.8527 64.1287C23.2513 59.5927 28.5203 56.0647 34.66 53.5447C40.7996 51.0247 47.5578 49.7647 54.9345 49.7647C58.6916 49.7647 62.2196 50.1084 65.5185 50.7956C68.8632 51.4371 71.9789 52.3535 74.8654 53.5447C77.752 54.6902 80.4094 56.0876 82.8378 57.7371C85.2662 59.3865 87.4196 61.1735 89.2982 63.0978L81.4632 73.6131C80.9592 74.2545 80.3636 74.8502 79.6763 75.4C78.9891 75.904 78.0269 76.156 76.7898 76.156C75.9651 76.156 75.1862 75.9727 74.4531 75.6062C73.72 75.2396 72.9411 74.8044 72.1163 74.3004C71.2916 73.7506 70.3752 73.1778 69.3672 72.5822C68.4051 71.9407 67.2367 71.368 65.8622 70.864C64.5334 70.3142 62.9527 69.856 61.12 69.4895C59.3331 69.1229 57.2254 68.9396 54.7971 68.9396C50.9483 68.9396 47.4203 69.6498 44.2131 71.0702C41.0516 72.4905 38.3025 74.5753 35.9658 77.3244C33.6749 80.0276 31.888 83.3724 30.6051 87.3585C29.368 91.2989 28.7494 95.812 28.7494 100.898C28.7494 106.029 29.4367 110.588 30.8112 114.575C32.2316 118.561 34.1331 121.928 36.5156 124.677C38.944 127.381 41.7618 129.443 44.9691 130.863C48.1763 132.283 51.6127 132.993 55.2782 132.993C57.3858 132.993 59.3102 132.902 61.0512 132.719C62.7923 132.489 64.4189 132.146 65.9309 131.688C67.4429 131.184 68.8632 130.542 70.192 129.763C71.5207 128.939 72.8723 127.908 74.2469 126.671C74.7967 126.212 75.3923 125.846 76.0338 125.571C76.6752 125.25 77.3396 125.09 78.0269 125.09ZM196.605 100.898C196.605 108.137 195.345 114.872 192.825 121.104C190.351 127.335 186.846 132.764 182.31 137.392C177.774 141.974 172.299 145.571 165.884 148.182C159.515 150.794 152.436 152.1 144.647 152.1C136.858 152.1 129.756 150.794 123.342 148.182C116.927 145.571 111.429 141.974 106.847 137.392C102.311 132.764 98.7832 127.335 96.2632 121.104C93.7891 114.872 92.552 108.137 92.552 100.898C92.552 93.6586 93.7891 86.9233 96.2632 80.692C98.7832 74.4607 102.311 69.0542 106.847 64.4724C111.429 59.8906 116.927 56.2938 123.342 53.6822C129.756 51.0706 136.858 49.7647 144.647 49.7647C152.436 49.7647 159.515 51.0935 165.884 53.7509C172.299 56.3626 177.774 59.9593 182.31 64.5411C186.846 69.1229 190.351 74.5295 192.825 80.7607C195.345 86.992 196.605 93.7044 196.605 100.898ZM172.825 100.898C172.825 95.9495 172.184 91.5051 170.901 87.5647C169.618 83.5786 167.762 80.2109 165.334 77.4618C162.952 74.7127 160.019 72.6051 156.537 71.1389C153.055 69.6727 149.092 68.9396 144.647 68.9396C140.157 68.9396 136.148 69.6727 132.62 71.1389C129.138 72.6051 126.183 74.7127 123.754 77.4618C121.372 80.2109 119.539 83.5786 118.256 87.5647C116.973 91.5051 116.332 95.9495 116.332 100.898C116.332 105.892 116.973 110.382 118.256 114.368C119.539 118.309 121.372 121.653 123.754 124.403C126.183 127.152 129.138 129.259 132.62 130.725C136.148 132.146 140.157 132.856 144.647 132.856C149.092 132.856 153.055 132.146 156.537 130.725C160.019 129.259 162.952 127.152 165.334 124.403C167.762 121.653 169.618 118.309 170.901 114.368C172.184 110.382 172.825 105.892 172.825 100.898Z" fill="#185C9A"/>
<path d="M236.993 94.7775C238.091 94.7775 238.958 95.085 239.595 95.6998C240.232 96.2927 240.55 97.0832 240.55 98.0713V104H206.822V100.706C206.822 100.069 206.954 99.3888 207.218 98.6642C207.481 97.9395 207.942 97.2808 208.601 96.6879L222.435 82.7554C223.62 81.5697 224.652 80.4388 225.531 79.3629C226.409 78.2869 227.134 77.2329 227.705 76.2009C228.276 75.1469 228.704 74.1039 228.989 73.0718C229.275 72.0179 229.417 70.909 229.417 69.7452C229.417 67.8348 228.956 66.3746 228.034 65.3645C227.134 64.3325 225.75 63.8165 223.884 63.8165C222.369 63.8165 221.084 64.2227 220.03 65.0351C218.998 65.8256 218.285 66.8138 217.889 67.9995C217.428 69.2072 216.824 70.0087 216.078 70.4039C215.331 70.7992 214.266 70.887 212.883 70.6674L207.481 69.7122C207.832 67.3188 208.502 65.2328 209.49 63.4542C210.5 61.6755 211.741 60.1934 213.212 59.0076C214.705 57.8219 216.407 56.9435 218.318 56.3726C220.228 55.7798 222.281 55.4833 224.477 55.4833C226.848 55.4833 228.978 55.8347 230.867 56.5373C232.777 57.218 234.402 58.1732 235.741 59.4029C237.081 60.6325 238.102 62.1037 238.805 63.8165C239.529 65.5072 239.891 67.3737 239.891 69.4158C239.891 71.1725 239.639 72.7974 239.134 74.2905C238.651 75.7837 237.981 77.211 237.125 78.5724C236.268 79.9118 235.269 81.2183 234.127 82.4919C233.008 83.7435 231.811 85.0171 230.537 86.3127L221.15 95.9304C222.358 95.5571 223.555 95.2716 224.74 95.074C225.926 94.8764 227.024 94.7775 228.034 94.7775H236.993Z" fill="#82B358"/>
<path d="M236.6 129.178C236.6 131.464 236.202 133.576 235.406 135.515C234.625 137.44 233.518 139.111 232.085 140.529C230.653 141.932 228.924 143.032 226.898 143.828C224.887 144.609 222.651 145 220.191 145H207.906V113.377H220.191C222.651 113.377 224.887 113.775 226.898 114.57C228.924 115.366 230.653 116.466 232.085 117.87C233.518 119.273 234.625 120.944 235.406 122.883C236.202 124.808 236.6 126.906 236.6 129.178ZM229.09 129.178C229.09 127.615 228.887 126.204 228.482 124.945C228.077 123.686 227.491 122.623 226.724 121.755C225.972 120.872 225.046 120.199 223.946 119.736C222.846 119.259 221.595 119.02 220.191 119.02H215.286V139.357H220.191C221.595 139.357 222.846 139.125 223.946 138.662C225.046 138.185 225.972 137.512 226.724 136.644C227.491 135.761 228.077 134.69 228.482 133.432C228.887 132.173 229.09 130.755 229.09 129.178ZM256.54 132.911L253.609 124.251C253.392 123.701 253.161 123.057 252.915 122.319C252.669 121.567 252.423 120.756 252.177 119.888C251.96 120.771 251.728 121.588 251.482 122.341C251.236 123.093 251.005 123.744 250.788 124.294L247.879 132.911H256.54ZM268.195 145H262.508C261.872 145 261.358 144.855 260.967 144.566C260.577 144.262 260.28 143.879 260.077 143.416L258.211 137.903H246.187L244.32 143.416C244.161 143.821 243.871 144.19 243.452 144.523C243.047 144.841 242.54 145 241.932 145H236.203L248.444 113.377H255.953L268.195 145ZM290.318 119.194H281.419V145H274.083V119.194H265.184V113.377H290.318V119.194ZM307.663 132.911L304.733 124.251C304.516 123.701 304.285 123.057 304.039 122.319C303.793 121.567 303.547 120.756 303.301 119.888C303.084 120.771 302.852 121.588 302.606 122.341C302.36 123.093 302.129 123.744 301.912 124.294L299.003 132.911H307.663ZM319.319 145H313.632C312.996 145 312.482 144.855 312.091 144.566C311.7 144.262 311.404 143.879 311.201 143.416L309.335 137.903H297.31L295.444 143.416C295.285 143.821 294.995 144.19 294.576 144.523C294.171 144.841 293.664 145 293.056 145H287.326L299.568 113.377H307.077L319.319 145Z" fill="#185C9A"/>
<circle cx="92.3462" cy="184.5" r="10.5" fill="#82B358"/>
<circle cx="129.846" cy="174" r="9" fill="#82B358"/>
<circle cx="168.846" cy="174" r="9" fill="#82B358"/>
<circle cx="200.346" cy="166.5" r="4.5" fill="#82B358"/>
<circle cx="63.8462" cy="165" r="6" fill="#82B358"/>
<circle cx="27.8462" cy="177" r="6" fill="#82B358"/>
<circle cx="54.8462" cy="192" r="3" fill="#82B358"/>
<circle cx="3.84616" cy="159" r="3" fill="#82B358"/>
<circle cx="146.346" cy="22.5" r="10.5" fill="#82B358"/>
<circle cx="170.346" cy="37.5" r="7.5" fill="#82B358"/>
<circle cx="171.846" cy="6" r="6" fill="#82B358"/>
<circle cx="203.346" cy="28.5" r="7.5" fill="#82B358"/>
<circle cx="83.3462" cy="22.5" r="4.5" fill="#82B358"/>
<circle cx="122.346" cy="7.5" r="4.5" fill="#82B358"/>
<circle cx="108.846" cy="33" r="3" fill="#82B358"/>
<circle cx="69.8462" cy="39" r="3" fill="#82B358"/>
<circle cx="35.3462" cy="43.5" r="1.5" fill="#82B358"/>
</svg>
